<?xml version="1.0" encoding="UTF-8"?>
<svg width="54px" height="68px" viewBox="0 0 54 68" version="1.1" xmlns="http://www.w3.org/2000/svg" xmlns:xlink="http://www.w3.org/1999/xlink">
    <!-- Generator: sketchtool 52.2 (67145) - http://www.bohemiancoding.com/sketch -->
    <title>512A2388-E03C-4EDB-8EBB-A99059F6189D</title>
    <desc>Created with sketchtool.</desc>
    <g id="Page-1" stroke="none" stroke-width="1" fill="none" fill-rule="evenodd">
        <g id="Iteration-4.3-Good-Copy" transform="translate(-145.000000, -336.000000)" fill="#275B50" fill-rule="nonzero">
            <g id="Stats" transform="translate(115.000000, 251.000000)">
                <g id="Icon" transform="translate(25.000000, 85.000000)">
                    <g id="noun_Guy-Laugh_1147190" transform="translate(4.518519, 0.000000)">
                        <g id="Group" transform="translate(27.111111, 34.000000) scale(-1, 1) rotate(-180.000000) translate(-27.111111, -34.000000) ">
                            <g transform="translate(0.000000, -0.000000)">
                                <g transform="translate(0.000000, -0.000000)">
                                    <path d="M5.74488891,21.9612796 C4.23288891,22.0102396 2.94488891,22.8280529 2.07288891,23.9604796 C1.17600003,25.1246395 0.660444472,26.6741328 0.660444472,28.3260795 C0.660444472,29.9771195 1.17600003,31.5257061 2.07288891,32.6907727 C2.94311114,33.818666 4.21511113,34.631946 5.71822224,34.6881594 C4.65066669,41.4265059 1.81333336,51.0190391 5.84000002,56.6884256 C7.94311113,61.7993055 14.9875556,65.7986121 19.8915556,66.6436254 C18.8168889,64.9372788 18.1004445,64.4503988 18.3386667,63.1710922 C20.6026667,65.6743988 24.968,68.2266654 28.6702222,67.9836788 C26.9395556,67.5793054 25.864,65.4250655 25.9235556,63.7803722 C28.7182222,66.9056521 31.2186667,66.9482654 35.1751111,67.3689588 C34.0533333,66.6771721 33.216,65.2908788 33.5075555,63.5972255 C35.608,65.0959455 38.608,65.5229855 41.24,65.2138121 C40.6542222,64.4621855 39.8284444,63.5500788 39.9573333,62.3795722 C42.3786667,63.1384522 44.4364444,62.6225589 46.1084444,62.0749322 C45.0373333,61.2553055 44.7262222,60.3341322 45.2062222,59.4900256 C45.5128889,59.3204789 45.8,59.1463989 46.0622222,58.9659723 C53.3093333,53.9829323 49.7368889,42.4446926 48.5075555,34.6881594 C50.0044444,34.6301327 51.2808889,33.8150394 52.1484444,32.6907727 C53.0462222,31.5257061 53.5617778,29.9771195 53.5617778,28.3260795 C53.5617778,26.6741328 53.0462222,25.1246395 52.1484444,23.9604796 C51.272,22.8244262 49.9902222,22.0093329 48.4755555,21.9612796 C48.4462222,9.84821315 38.9013333,-1.28845083e-13 27.1102222,-1.28845083e-13 C15.3182222,-1.28845083e-13 5.77333336,9.84821315 5.74488891,21.9612796 Z M45.4897769,22.0174939 L45.488888,22.8643206 L45.4257769,22.8969606 L45.488888,23.8752539 L45.488888,33.7842142 L45.4897769,33.7842142 L45.4897769,34.6337609 C45.4897769,40.2813877 43.096888,45.3487478 39.305777,48.8221879 C36.9573327,48.2482679 34.1813327,47.9164279 31.2088884,47.9164279 L22.0079997,47.9164279 C19.3679998,47.9164279 16.8844443,48.1784546 14.7164444,48.6390412 C11.04,45.1710411 8.73066673,40.182561 8.73066673,34.6337609 L8.73066673,22.0174939 C8.73066673,11.5291736 16.9795554,3.04549341 27.1102218,3.04549341 C37.2399993,3.04549341 45.4897769,11.5291736 45.4897769,22.0174939 Z M5.74399988,25.0149339 L5.74488877,31.6363207 L5.70133322,31.6336007 C5.26755545,31.578294 4.81599991,31.3208007 4.42044437,30.8076273 C3.96711105,30.2201073 3.64622217,29.3469873 3.64622217,28.3260806 C3.64622217,27.3042673 3.96711105,26.4311473 4.42044437,25.8427206 C4.81333324,25.3322672 5.27022212,25.0738672 5.7022221,25.0167472 L5.74399988,25.0149339 Z M48.4764461,25.0149339 L48.5200017,25.0167472 C48.9528906,25.0729606 49.405335,25.3295472 49.8008906,25.8427206 C50.2542239,26.4311472 50.5760017,27.3042672 50.5760017,28.3260805 C50.5760017,29.3469872 50.2542239,30.2201072 49.8008906,30.8076272 C49.4071128,31.3180805 48.9502239,31.5773872 48.5191128,31.6336005 L48.4755573,31.6354138 L48.4764461,25.0149339 Z" id="Shape"></path>
                                    <path d="M18.4048095,16.1187247 C17.9137704,16.6282714 17.9766721,17.3980313 18.5458311,17.8377647 C19.1160046,18.2765913 19.9773521,18.220378 20.4694058,17.711738 C21.6949745,16.441498 24.1724901,15.4532314 27.1948156,15.4532314 C30.2201847,15.4532314 32.6926275,16.4396847 33.9202253,17.7108313 C34.412279,18.220378 35.272612,18.2765913 35.8427855,17.8377647 C36.412959,17.3980313 36.4758608,16.629178 35.9848216,16.1196314 C34.1140032,14.1820848 30.7994891,13.0170182 27.1948156,13.0170182 C23.5921711,13.0170182 20.2735989,14.1848048 18.4048095,16.1187247 Z" id="Path"></path>
                                    <ellipse id="Oval" cx="14.8928752" cy="27.2680999" rx="2.41643903" ry="2.39584001"></ellipse>
                                    <ellipse id="Oval" cx="39.3679159" cy="27.2680999" rx="2.41643903" ry="2.39584001"></ellipse>
                                    <path d="M14.8928753,33.7799998 C13.5729838,33.7799998 12.3320049,33.2703998 11.3986081,32.3449598 C10.8943092,31.8451198 10.8943092,31.0347198 11.3986081,30.5347198 C11.9029071,30.0347197 12.7202748,30.0348797 13.224251,30.5347198 C13.6699705,30.9766398 14.262542,31.2199998 14.8928753,31.2199998 C15.5232086,31.2199998 16.1157801,30.9766398 16.5614996,30.5347198 C16.8135684,30.2847997 17.1439044,30.1596797 17.4744017,30.1598397 C17.8047377,30.1598397 18.1352351,30.2847997 18.3873038,30.5347198 C18.8916028,31.0345598 18.8916028,31.8449598 18.3873038,32.3449598 C17.4537457,33.2702398 16.2127668,33.7799998 14.8928753,33.7799998 Z" id="Shape"></path>
                                    <path d="M35.8734862,32.3425409 C35.3691873,31.8427009 35.3691873,31.0323009 35.8734862,30.5323009 C36.3776238,30.0323008 37.1949915,30.0324608 37.6991291,30.5323009 C38.6191317,31.4446209 40.1163751,31.4444609 41.0363777,30.5323009 C41.2884465,30.2823808 41.6187825,30.1574208 41.9492798,30.1574208 C42.2797772,30.1574208 42.6101131,30.2823808 42.8621819,30.5323009 C43.3664809,31.0321409 43.3664809,31.8425409 42.8621819,32.3425409 C40.9356793,34.252621 37.800473,34.252781 35.8734862,32.3425409 Z" id="Shape"></path>
                                </g>
                            </g>
                        </g>
                    </g>
                </g>
            </g>
        </g>
    </g>
</svg>